REM MD5 b4281958aff5ef106a24d28511f19d2b
FILE "PGA European Tour Golf (Europe) (Fr,Es,It).bin" BINARY
  TRACK 01 MODE2/2352
    INDEX 01 00:00:00
  TRACK 02 AUDIO
    INDEX 00 44:35:68
    INDEX 01 44:37:68
  TRACK 03 AUDIO
    INDEX 00 47:51:22
    INDEX 01 47:53:22
REM LEADOUT 51:02:40
